<svg xmlns="http://www.w3.org/2000/svg" version="1.1" xmlns:xlink="http://www.w3.org/1999/xlink" xmlns:svgjs="http://svgjs.com/svgjs" width="145" height="136"><svg width="145" height="136" viewBox="0 0 145 136" fill="none" xmlns="http://www.w3.org/2000/svg">
<path fill-rule="evenodd" clip-rule="evenodd" d="M122.872 86.2479L124.259 84.8547C127.076 82.0249 128.305 78.201 127.95 74.4927L132.125 70.2982C148.135 54.2165 148.135 28.1429 132.125 12.0613C116.116 -4.02042 90.1598 -4.02042 74.1505 12.0613L72.066 14.1552L69.8713 11.9505C54.0784 -3.91379 28.5522 -3.99316 12.8568 11.7732L11.72 12.9151C-3.97534 28.6815 -3.89633 54.3231 11.8965 70.1874L13.5301 71.8283L12.6478 72.6867C7.06724 78.116 6.99659 86.9907 12.49 92.5089C14.89 94.9198 17.9551 96.2912 21.1114 96.6183C20.7079 100.722 22.0786 104.967 25.2332 108.136C28.0451 110.96 31.7445 112.398 35.459 112.441C35.6018 115.791 36.9539 119.102 39.5207 121.68C43.2676 125.444 48.6354 126.674 53.4406 125.353C54.0737 127.67 55.3013 129.862 57.1253 131.694C62.7757 137.37 72.0093 137.444 77.7493 131.86L81.7911 127.928C84.6681 125.129 86.1213 121.439 86.1438 117.741C89.4513 117.755 92.7562 116.5 95.2719 113.973L96.6588 112.58C97.8474 111.386 98.7533 110.015 99.3768 108.551C100.012 107.059 100.354 105.47 100.403 103.872C101.994 103.822 103.576 103.479 105.061 102.841C106.519 102.215 107.883 101.305 109.072 100.111L110.459 98.7176C111.648 97.5236 112.554 96.1525 113.177 94.6878C113.812 93.1959 114.154 91.607 114.203 90.009C115.794 89.9596 117.376 89.616 118.861 88.9782C120.319 88.3519 121.684 87.4419 122.872 86.2479ZM89.62 43.2076L89.6374 43.2251L118.519 72.2371C121.364 75.0952 119.606 78.0034 117.901 79.7162C116.195 81.4291 113.202 83.294 110.357 80.4359L88.6197 58.6004C88.6197 58.6004 85.1556 62.0802 82.9359 64.3099C91.4248 72.8372 104.673 86.1454 104.673 86.1454C107.518 89.0035 106.054 91.7235 104.313 93.4725C102.572 95.2216 99.5703 96.9875 96.7251 94.1293C93.8798 91.2712 74.8194 72.4631 74.8194 72.4631L69.1356 78.1726L90.8729 100.008C93.443 102.59 92.0393 105.694 90.4762 107.265C88.9132 108.835 85.5561 111.065 82.7111 108.207C82.5903 108.101 82.5226 108.042 82.4018 107.936C82.2608 107.82 82.105 107.691 81.9534 107.539C78.1755 103.744 72.7958 102.453 67.9294 103.684C67.3134 101.434 66.1204 99.305 64.3487 97.5253C61.5708 94.7348 57.902 93.337 54.232 93.339C54.1243 91.2996 53.5806 89.2777 52.5997 87.4216C51.9472 86.1868 51.1011 85.0253 50.0613 83.9807C47.6203 81.5287 44.5106 80.1221 41.3027 79.7656C41.7649 75.7099 40.44 71.4898 37.318 68.3538C32.5118 63.5258 25.0389 62.8667 19.5071 66.4134L17.5803 64.4779C4.89332 51.7335 4.88066 31.2044 17.4038 18.6246L18.5406 17.4827C31.0638 4.90288 51.5005 4.91561 64.1875 17.66L66.3822 19.8647L54.2572 32.0445L62.7829 40.6088C70.0389 47.8976 81.3029 48.7063 89.4484 43.0351L89.62 43.2076ZM18.2639 86.8914C15.9096 84.5265 15.9399 80.723 18.3316 78.3962L22.9507 73.9022C23.6875 73.1855 24.5623 72.6925 25.4891 72.4224C27.571 71.8159 29.915 72.3348 31.5441 73.9713C33.1732 75.6077 33.6605 77.9329 33.0137 79.9811C32.8146 80.6117 32.508 81.216 32.094 81.7659C31.9095 82.0111 31.7036 82.2455 31.4764 82.4665L26.8573 86.9605C26.2825 87.5196 25.6237 87.9426 24.9218 88.2298C22.7027 89.1376 20.0525 88.6881 18.2639 86.8914ZM76.1073 122.218L72.0655 126.15C69.5144 128.632 65.4106 128.599 62.8993 126.077C61.3243 124.495 60.7498 122.309 61.1697 120.287C61.4193 119.085 62.0203 117.94 62.9714 117.015L67.0132 113.083C67.1102 112.988 67.2094 112.898 67.3107 112.811C69.874 110.607 73.7636 110.73 76.1794 113.156C78.6907 115.679 78.6584 119.736 76.1073 122.218ZM45.3622 107.568L49.9814 103.074C50.585 102.487 51.2812 102.05 52.0227 101.762C54.2198 100.911 56.8145 101.375 58.5747 103.143C60.0208 104.595 60.5672 106.591 60.2194 108.453C60.001 109.623 59.4298 110.74 58.5071 111.638L53.8879 116.132C51.4963 118.459 47.6489 118.428 45.2946 116.063C43.6313 114.392 43.1582 112.003 43.8672 109.924C44.1618 109.061 44.6603 108.251 45.3622 107.568ZM35.1211 89.5246C35.7247 88.9373 36.4153 88.4908 37.1511 88.1848C38.3019 87.7063 39.5633 87.5713 40.7761 87.7785C42.0653 87.9989 43.2995 88.6059 44.2873 89.5982C44.6682 89.9808 44.9906 90.3988 45.2546 90.8412C46.2051 92.4342 46.3979 94.3442 45.837 96.0646C45.5268 97.0163 44.9859 97.9099 44.2152 98.6598L40.1734 102.592C39.4873 103.259 38.689 103.745 37.8395 104.049C35.5302 104.876 32.8431 104.363 31.0072 102.518C28.8264 100.328 28.5638 96.98 30.2031 94.5114C30.4515 94.1373 30.7436 93.7834 31.0793 93.4568L35.1211 89.5246ZM68.4667 34.8993L65.6248 32.0445L79.8343 17.7708C92.7045 4.84235 113.571 4.84235 126.441 17.7708C139.312 30.6992 139.312 51.6603 126.441 64.5887L124.452 66.587L90.4663 32.4475L90.3545 32.5264L84.9382 36.3506C84.5091 36.6536 84.0656 36.927 83.6106 37.1709C78.7488 39.7768 72.5632 39.0142 68.4667 34.8993Z" fill="black"></path>
<path d="M65.6248 32.0445L68.4667 34.8993C72.5632 39.0142 78.7488 39.7768 83.6106 37.1709C84.0656 36.927 84.5091 36.6536 84.9382 36.3506L90.3545 32.5264L90.4663 32.4475L124.452 66.587L126.441 64.5887C139.312 51.6603 139.312 30.6992 126.441 17.7708C113.571 4.84235 92.7045 4.84235 79.8343 17.7708L65.6248 32.0445Z" fill="#016F75"></path>
<path d="M18.3316 78.3962C15.9399 80.723 15.9096 84.5265 18.2639 86.8914C20.0525 88.6881 22.7027 89.1376 24.9218 88.2298C25.6237 87.9426 26.2825 87.5196 26.8573 86.9605L31.4764 82.4665C31.7036 82.2455 31.9095 82.0111 32.094 81.7659C32.508 81.216 32.8146 80.6117 33.0137 79.9811C33.6605 77.9329 33.1732 75.6077 31.5441 73.9713C29.915 72.3348 27.571 71.8159 25.4891 72.4224C24.5623 72.6925 23.6875 73.1855 22.9507 73.9022L18.3316 78.3962Z" fill="#017075"></path>
<path d="M37.1511 88.1848C36.4153 88.4908 35.7247 88.9373 35.1211 89.5246L31.0793 93.4568C30.7436 93.7834 30.4515 94.1373 30.2031 94.5114C28.5638 96.98 28.8264 100.328 31.0072 102.518C32.8431 104.363 35.5302 104.876 37.8395 104.049C38.689 103.745 39.4873 103.259 40.1734 102.592L44.2152 98.6598C44.9859 97.9099 45.5268 97.0163 45.837 96.0646C46.3979 94.3442 46.2051 92.4342 45.2546 90.8412C44.9906 90.3988 44.6682 89.9808 44.2873 89.5982C43.2995 88.6059 42.0653 87.9989 40.7761 87.7785C39.5633 87.5713 38.3019 87.7063 37.1511 88.1848Z" fill="#017075"></path>
<path d="M49.9814 103.074L45.3622 107.568C44.6603 108.251 44.1618 109.061 43.8672 109.924C43.1582 112.003 43.6313 114.392 45.2946 116.063C47.6489 118.428 51.4963 118.459 53.8879 116.132L58.5071 111.638C59.4298 110.74 60.001 109.623 60.2194 108.453C60.5672 106.591 60.0208 104.595 58.5747 103.143C56.8145 101.375 54.2198 100.911 52.0227 101.762C51.2812 102.05 50.585 102.487 49.9814 103.074Z" fill="#017075"></path>
<path fill-rule="evenodd" clip-rule="evenodd" d="M82.7111 108.207C82.634 108.13 82.5045 108.021 82.4018 107.936C82.5226 108.042 82.5903 108.101 82.7111 108.207Z" fill="#ECB22E" fill-opacity="0.4"></path>
<path d="M72.0655 126.15L76.1073 122.218C78.6584 119.736 78.6907 115.679 76.1794 113.156C73.7636 110.73 69.874 110.607 67.3107 112.811C67.2094 112.898 67.1102 112.988 67.0132 113.083L62.9714 117.015C62.0203 117.94 61.4193 119.085 61.1697 120.287C60.7498 122.309 61.3243 124.495 62.8993 126.077C65.4106 128.599 69.5144 128.632 72.0655 126.15Z" fill="#017075"></path>
<path d="M89.6374 43.2251L89.62 43.2076L89.4484 43.0351C81.3029 48.7063 70.0389 47.8976 62.7829 40.6088L54.2572 32.0445L66.3822 19.8647L64.1875 17.66C51.5005 4.91561 31.0638 4.90288 18.5406 17.4827L17.4038 18.6246C4.88066 31.2044 4.89332 51.7335 17.5803 64.4779L19.5071 66.4134C25.0389 62.8667 32.5118 63.5258 37.318 68.3538C40.44 71.4898 41.7649 75.7099 41.3027 79.7656C44.5106 80.1221 47.6203 81.5287 50.0613 83.9807C51.1011 85.0253 51.9472 86.1868 52.5997 87.4216C53.5806 89.2777 54.1243 91.2996 54.232 93.339C57.902 93.337 61.5708 94.7348 64.3487 97.5253C66.1204 99.305 67.3134 101.434 67.9294 103.684C72.7958 102.453 78.1755 103.744 81.9534 107.539C82.105 107.691 82.2608 107.82 82.4018 107.936C82.5045 108.021 82.634 108.13 82.7111 108.207C85.5561 111.065 88.9132 108.835 90.4762 107.265C92.0393 105.694 93.443 102.59 90.8729 100.008L69.1356 78.1726L74.8194 72.4631C74.8194 72.4631 93.8798 91.2712 96.7251 94.1293C99.5703 96.9875 102.572 95.2216 104.313 93.4725C106.054 91.7235 107.518 89.0035 104.673 86.1454C104.673 86.1454 91.4248 72.8372 82.9359 64.3099C85.1556 62.0802 88.6197 58.6004 88.6197 58.6004L110.357 80.4359C113.202 83.294 116.195 81.4291 117.901 79.7162C119.606 78.0034 121.364 75.0952 118.519 72.2371L89.6374 43.2251Z" fill="#F48D79"></path>
</svg><style>@media (prefers-color-scheme: light) { :root { filter: none; } }
</style></svg>