<svg width="348" height="52" viewBox="0 0 348 52" fill="none" xmlns="http://www.w3.org/2000/svg">
<rect x="50.459" y="1.5" width="49" height="49" stroke="#A9A9A9"/>
<path d="M76.9302 18.9545V33.5H75.1688V20.8011H75.0836L71.5325 23.1591V21.3693L75.1688 18.9545H76.9302Z" fill="#017075"/>
<rect x="99.416" y="1.5" width="49" height="49" stroke="#A9A9A9"/>
<path d="M119.888 33.5V32.2216L124.689 26.9659C125.252 26.3504 125.716 25.8153 126.081 25.3608C126.446 24.9015 126.715 24.4706 126.891 24.0682C127.071 23.661 127.161 23.2348 127.161 22.7898C127.161 22.2784 127.037 21.8357 126.791 21.4616C126.55 21.0876 126.218 20.7988 125.797 20.5952C125.376 20.3916 124.902 20.2898 124.376 20.2898C123.818 20.2898 123.33 20.4058 122.913 20.6378C122.501 20.8651 122.182 21.1847 121.955 21.5966C121.732 22.0085 121.621 22.4915 121.621 23.0455H119.945C119.945 22.1932 120.141 21.4451 120.534 20.8011C120.927 20.1572 121.462 19.6553 122.139 19.2955C122.821 18.9356 123.586 18.7557 124.433 18.7557C125.286 18.7557 126.041 18.9356 126.699 19.2955C127.357 19.6553 127.873 20.1406 128.247 20.7514C128.621 21.3622 128.808 22.0417 128.808 22.7898C128.808 23.3248 128.711 23.848 128.517 24.3594C128.328 24.866 127.996 25.4318 127.523 26.0568C127.054 26.6771 126.403 27.4347 125.57 28.3295L122.303 31.8239V31.9375H129.064V33.5H119.888Z" fill="#017075"/>
<rect x="199.416" y="1.5" width="49" height="49" stroke="#A9A9A9"/>
<path d="M219.186 30.517V29.0682L225.578 18.9545H226.629V21.1989H225.919L221.089 28.8409V28.9545H229.697V30.517H219.186ZM226.032 33.5V30.0767V29.402V18.9545H227.708V33.5H226.032Z" fill="#017075"/>
<rect x="248.375" y="1.5" width="49" height="49" stroke="#A9A9A9"/>
<path d="M273.363 33.6989C272.53 33.6989 271.779 33.5331 271.112 33.2017C270.444 32.8703 269.909 32.4157 269.506 31.8381C269.104 31.2604 268.884 30.6023 268.846 29.8636H270.55C270.617 30.5218 270.915 31.0663 271.445 31.4972C271.98 31.9233 272.62 32.1364 273.363 32.1364C273.96 32.1364 274.49 31.9967 274.954 31.7173C275.423 31.438 275.79 31.0545 276.055 30.5668C276.325 30.0743 276.46 29.518 276.46 28.8977C276.46 28.2633 276.32 27.6974 276.041 27.2003C275.766 26.6984 275.387 26.303 274.904 26.0142C274.421 25.7254 273.87 25.5786 273.249 25.5739C272.804 25.5691 272.347 25.6378 271.879 25.7798C271.41 25.9171 271.024 26.0947 270.721 26.3125L269.073 26.1136L269.954 18.9545H277.511V20.517H271.431L270.92 24.8068H271.005C271.303 24.5701 271.677 24.3736 272.127 24.2173C272.577 24.0611 273.046 23.983 273.533 23.983C274.424 23.983 275.217 24.196 275.913 24.6222C276.613 25.0436 277.163 25.6212 277.56 26.3551C277.963 27.089 278.164 27.9271 278.164 28.8693C278.164 29.7973 277.956 30.6259 277.539 31.3551C277.127 32.0795 276.559 32.6525 275.835 33.0739C275.11 33.4905 274.286 33.6989 273.363 33.6989Z" fill="#017075"/>
<path d="M1 5C1 2.79086 2.79086 1 5 1H51V51H5C2.79086 51 1 49.2091 1 47V5Z" stroke="#A9A9A9"/>
<path d="M25.5744 18.7085L27.2756 20.5151L22.1105 26.0002L27.2756 31.4852L25.5744 33.2918L18.708 26.0002L25.5744 18.7085Z" fill="#017075"/>
<path d="M24.7237 26.0002L31.5901 18.7085L33.2913 20.5151L28.1262 26.0002L33.2913 31.4852L31.5901 33.2918L24.7237 26.0002Z" fill="#017075"/>
<path d="M346.834 5C346.834 2.79086 345.043 1 342.834 1H296.834V51H342.834C345.043 51 346.834 49.2091 346.834 47V5Z" stroke="#A9A9A9"/>
<path d="M322.26 18.7085L320.558 20.5151L325.723 26.0002L320.558 31.4852L322.26 33.2918L329.126 26.0002L322.26 18.7085Z" fill="#017075"/>
<path d="M323.11 26.0002L316.244 18.7085L314.543 20.5151L319.708 26.0002L314.543 31.4852L316.244 33.2918L323.11 26.0002Z" fill="#017075"/>
<rect x="148.416" y="0.5" width="51" height="51" fill="#017075" stroke="#017075"/>
<path d="M174.49 33.6989C173.553 33.6989 172.717 33.5379 171.983 33.2159C171.254 32.8939 170.674 32.4465 170.243 31.8736C169.817 31.2959 169.585 30.6259 169.547 29.8636H171.337C171.375 30.3324 171.536 30.7372 171.82 31.0781C172.104 31.4143 172.475 31.6747 172.935 31.8594C173.394 32.044 173.903 32.1364 174.462 32.1364C175.087 32.1364 175.641 32.0275 176.124 31.8097C176.607 31.5919 176.985 31.2888 177.26 30.9006C177.535 30.5123 177.672 30.0625 177.672 29.5511C177.672 29.0161 177.539 28.545 177.274 28.1378C177.009 27.7259 176.621 27.4039 176.109 27.1719C175.598 26.9399 174.973 26.8239 174.234 26.8239H173.07V25.2614H174.234C174.812 25.2614 175.319 25.1572 175.754 24.9489C176.195 24.7405 176.538 24.447 176.784 24.0682C177.035 23.6894 177.161 23.2443 177.161 22.733C177.161 22.2405 177.052 21.812 176.834 21.4474C176.616 21.0829 176.308 20.7988 175.911 20.5952C175.518 20.3916 175.054 20.2898 174.519 20.2898C174.017 20.2898 173.543 20.3821 173.098 20.5668C172.658 20.7467 172.298 21.0095 172.019 21.3551C171.739 21.696 171.588 22.108 171.564 22.5909H169.859C169.888 21.8286 170.117 21.161 170.548 20.5881C170.979 20.0104 171.543 19.5606 172.239 19.2386C172.939 18.9167 173.709 18.7557 174.547 18.7557C175.447 18.7557 176.218 18.938 176.862 19.3026C177.506 19.6624 178.001 20.1383 178.347 20.7301C178.692 21.322 178.865 21.9612 178.865 22.6477C178.865 23.4669 178.65 24.1652 178.219 24.7429C177.793 25.3205 177.213 25.7206 176.479 25.9432V26.0568C177.397 26.2083 178.115 26.599 178.631 27.2287C179.147 27.8537 179.405 28.6278 179.405 29.5511C179.405 30.3419 179.189 31.0521 178.759 31.6818C178.332 32.3068 177.75 32.7992 177.011 33.1591C176.273 33.5189 175.432 33.6989 174.49 33.6989Z" fill="white"/>
</svg>
